<svg width="155" height="156" viewBox="0 0 155 156" fill="none" xmlns="http://www.w3.org/2000/svg">
<path d="M77.85 13.6137C69.3828 16.972 62.6773 23.4352 58.9971 31.6397C50.681 28.1932 41.3647 28.0846 32.8987 31.4424C15.1124 38.4968 6.39066 58.6897 13.4446 76.4747C28.6752 114.876 94.3765 132.658 97.1677 133.402L99.6088 134.034L100.938 131.907C102.462 129.451 138.125 71.4655 122.894 33.0646C115.84 15.2795 95.6351 6.55979 77.85 13.6137ZM41.07 99.4949L34.5096 94.0665C34.3111 93.8661 34.107 93.6811 33.9198 93.5056C32.9195 92.5801 31.9586 91.639 31.0358 90.6828C30.9541 90.5844 30.8663 90.5149 30.8107 90.4488C30.7482 90.3987 30.6939 90.3321 30.6553 90.2754L30.6426 90.2804L30.6135 90.2479C25.9275 85.319 22.1427 79.8843 19.7919 73.9572C14.1276 59.6759 21.1348 43.4539 35.4162 37.7897C43.1967 34.7037 51.8663 35.2598 59.2042 39.3147L62.8392 41.3269L64.1055 37.3707C66.6554 29.3941 72.5858 23.0474 80.3675 19.961C94.6615 14.2917 110.883 21.3007 116.547 35.582C118.108 39.5173 119.057 43.7247 119.508 48.0854L119.501 48.1014L119.517 48.142C119.516 48.1719 119.523 48.2264 119.521 48.2992C119.83 51.2634 119.892 54.3093 119.781 57.396L119.124 65.002L118.682 67.9969L119.124 65.002C118.989 65.9944 118.84 66.9937 118.682 67.9969C117.938 72.6407 116.856 77.2877 115.556 81.8289C115.561 81.8416 115.554 81.8575 115.547 81.8735C109.821 101.996 99.9875 119.987 96.4574 126.088C88.7371 123.773 64.458 115.832 44.7751 102.173C43.3186 101.164 41.8761 100.12 40.4789 99.0417" fill="#414042"/>
<path fill-rule="evenodd" clip-rule="evenodd" d="M91.9881 41.4896C92.8174 41.1509 93.7712 41.4228 94.2999 42.1485L107.473 60.2329L103.707 45.2396C103.491 44.3807 103.879 43.4849 104.652 43.0571C105.425 42.6293 106.389 42.7765 107.002 43.4159L113.767 50.4799L122.39 47.0597C123.391 46.663 124.524 47.1542 124.921 48.1568C125.319 49.1593 124.831 50.2936 123.83 50.6903L113.99 54.5933C113.254 54.8852 112.414 54.7014 111.865 54.1283L109.279 51.428L113.697 69.0192C113.925 69.9257 113.48 70.8657 112.635 71.2613C111.791 71.6568 110.784 71.397 110.234 70.6416L95.8016 50.8285L97.4739 62.2158C97.6055 63.1114 97.1054 63.9791 96.266 64.312L87.8952 67.632L90.8607 84.8058C91.0145 85.6966 90.538 86.5757 89.7089 86.9307C88.8798 87.2857 87.9149 87.0237 87.3766 86.2975L74.4263 68.8256L78.4613 82.9262C78.6977 83.7524 78.3675 84.6354 77.6479 85.1013C76.9283 85.5673 75.9884 85.5067 75.3325 84.9521L65.4014 76.5536L51.7241 81.9783C51.068 82.2385 50.3221 82.1226 49.7744 81.6753L47.6082 79.9063L51.8452 97.4543C52.0626 98.3548 51.6189 99.2832 50.783 99.6771C49.9471 100.071 48.949 99.8219 48.3935 99.0808L32.7943 78.2679L34.6852 89.7732C34.834 90.6788 34.3334 91.5649 33.4823 91.9025L25.7153 94.983L24.2754 91.3524L30.5846 88.8501L27.6586 71.0465C27.5128 70.1593 27.9904 69.288 28.8155 68.9361C29.6406 68.5842 30.5998 68.8426 31.139 69.562L45.8373 89.1728L42.4609 75.1889C42.2642 74.3743 42.6081 73.5256 43.3154 73.0799C44.0228 72.6342 44.936 72.6909 45.5847 73.2206L51.3468 77.9262L65.0451 72.4932C65.7124 72.2285 66.4715 72.3532 67.0207 72.8176L72.9512 77.833L67.7274 59.5781C67.4678 58.6708 67.8926 57.7085 68.7367 57.2917C69.5808 56.8749 70.6026 57.1229 71.1645 57.8809L85.6263 77.3921L83.7851 66.7294C83.628 65.8192 84.1287 64.9242 84.9854 64.5845L93.3936 61.2496L90.7984 43.5785C90.668 42.6902 91.1588 41.8283 91.9881 41.4896Z" fill="#414042"/>
</svg>
